<?xml version="1.0" standalone="no"?><!DOCTYPE svg PUBLIC "-//W3C//DTD SVG 1.1//EN" "http://www.w3.org/Graphics/SVG/1.1/DTD/svg11.dtd"><svg t="1576152388846" class="icon" viewBox="0 0 1024 1024" version="1.1" xmlns="http://www.w3.org/2000/svg" p-id="11934" xmlns:xlink="http://www.w3.org/1999/xlink" width="128" height="128"><defs><style type="text/css"></style></defs><path d="M1020.944813 645.176132c-7.271778-15.39153-25.711215-22.039327-40.982748-14.639553l-13.855577 6.5518c-34.35895 16.319501-90.901223 43.166681-154.891268 69.589874 42.750694-133.24393 54.150346-248.696403-6.079814-310.222523-90.069249-92.00519-228.305026-53.870354-329.405938-19.6714 33.518976-105.604774 63.974046-244.936518-6.583799-316.470332C404.867633-4.660018 326.486027-15.779678 189.746204 20.419216a30.807059 30.807059 0 0 0-21.887332 37.64685c4.343867 16.447498 21.151354 26.127202 37.638851 21.887332 129.708038-34.398949 180.250494-16.415499 219.841284 23.631278 55.126316 55.894293 6.663796 212.489509-23.015297 298.670876-86.341363 29.79109-242.752585 78.213611-298.614878 22.967299-40.110775-39.566791-58.054227-90.141246-23.679277-219.785286a30.799059 30.799059 0 0 0-21.871332-37.638851 30.719062 30.719062 0 0 0-37.662849 21.887332c-36.286892 136.84382-25.087234 215.193427 39.95078 279.383465 71.501816 70.637842 210.777561 40.166773 316.446333 6.583799-34.246954 101.180909-72.405788 239.400687 19.591402 329.453936 29.975084 29.343104 72.725778 41.702726 124.140208 41.702727 54.126347 0 117.828401-13.75958 186.186312-35.71091-26.375194 63.918048-53.158376 120.388323-69.445878 154.707275l-6.767794 14.223565a30.831058 30.831058 0 0 0 14.671552 41.006748 30.799059 30.799059 0 0 0 41.014747-14.671552l6.703795-14.167568c32.870996-69.277884 64.750022-140.171718 90.909223-208.441632 68.325913-26.207199 139.275746-58.102225 208.601628-91.045219l13.807579-6.5518a30.743061 30.743061 0 0 0 14.639552-40.982748zM439.530574 761.084591c-71.981801-70.445848-26.159201-202.793805 4.151873-290.415128l7.007786-20.087387 20.231382-7.031785c87.493327-30.279075 219.721288-76.037677 290.199135-4.031877 47.918536 48.942505 18.719428 175.738632-25.079234 296.438945-120.708313 43.830661-247.48844 73.053768-296.510942 25.127232z" fill="#ffffff" p-id="11935"></path><path d="M696.442726 552.434965L552.511123 696.382568a30.78306 30.78306 0 1 0 43.542669 43.53467L739.977396 595.961635a30.75906 30.75906 0 0 0 0-43.52667 30.735061 30.735061 0 0 0-43.53467 0zM641.124416 453.557985a30.78306 30.78306 0 0 0-43.53467 0L453.690141 597.521588a30.78306 30.78306 0 1 0 43.53467 43.53467l143.891605-143.971602a30.76706 30.76706 0 0 0 0.008-43.526671zM211.449541 398.831657a30.655064 30.655064 0 0 0 21.767335 9.015725c7.879759 0 15.759519-2.999908 21.767335-9.015725l143.955603-143.955603a30.78306 30.78306 0 1 0-43.534671-43.53467L211.449541 355.304987a30.76706 30.76706 0 0 0 0 43.52667zM134.387895 309.002401a30.719062 30.719062 0 0 0 21.783334-9.015725l143.851606-143.955602a30.78306 30.78306 0 1 0-43.550669-43.53467L112.60456 256.444006a30.799059 30.799059 0 0 0 21.783335 52.558395z" fill="#ffffff" p-id="11936"></path></svg>