<?xml version="1.0" standalone="no"?><!DOCTYPE svg PUBLIC "-//W3C//DTD SVG 1.1//EN" "http://www.w3.org/Graphics/SVG/1.1/DTD/svg11.dtd"><svg t="1576073917068" class="icon" viewBox="0 0 1024 1024" version="1.1" xmlns="http://www.w3.org/2000/svg" p-id="9675" xmlns:xlink="http://www.w3.org/1999/xlink" width="128" height="128"><defs><style type="text/css"></style></defs><path d="M917.584 844.398h-273.9l295.127-296.516c30.924-31.104 30.924-81.725-0.021-112.849L625.695 120.461c-30.125-30.245-82.744-30.245-112.869 0L73.917 561.447c-10.798 10.848-12.208 24.72-12.208 39.934-0.365 3.633 0.291 7.212 0.291 11.087v233.868c0 44.049 35.759 79.887 79.708 79.887h775.876c22.594 0 40.912-18.318 40.912-40.912s-18.318-40.913-40.912-40.913zM143.346 607.693l263.413-264.672 175.036 175.855c7.992 8.03 18.498 12.046 28.996 12.046a40.864 40.864 0 0 0 28.867-11.906c16.012-15.941 16.07-41.852 0.129-57.872L464.482 285.029 569.26 179.752l310.248 311.717-346.445 348.075c-1.498 1.518-2.727 3.176-3.945 4.854H143.825v-231.93c0-1.638-0.29-3.197-0.479-4.775z" p-id="9676" fill="#ffffff"></path></svg>