<?xml version="1.0" standalone="no"?><!DOCTYPE svg PUBLIC "-//W3C//DTD SVG 1.1//EN" "http://www.w3.org/Graphics/SVG/1.1/DTD/svg11.dtd"><svg t="1576152182289" class="icon" viewBox="0 0 1024 1024" version="1.1" xmlns="http://www.w3.org/2000/svg" p-id="9881" xmlns:xlink="http://www.w3.org/1999/xlink" width="128" height="128"><defs><style type="text/css"></style></defs><path d="M790.5 597l1 1 76.8 76.1-135.7 135.8-77.7-77.2L790.5 597m136.4-212.4c-8.2 0-16.3 3.1-22.6 9.3L790.5 506.5 586.9 710.1c-12.5 12.5-12.5 32.9 0 45.4l145.8 144.8L959 674 836.6 552.6l113-113.2c12.5-12.5 12.5-32.8 0-45.4-6.3-6.2-14.5-9.4-22.7-9.4z" p-id="9882" fill="#ffffff"></path><path d="M159.5 896c-17.7 0-32-14.3-32-32V160c0-17.7 14.3-32 32-32h543c17.7 0 32 14.3 32 32v256c0 17.7 14.3 32 32 32s32-14.3 32-32V128c0-35.3-28.7-64-64-64h-607c-35.3 0-64 28.7-64 64v768c0 35.3 28.7 64 64 64H608c17.7 0 32-14.3 32-32s-14.3-32-32-32H159.5z" p-id="9883" fill="#ffffff"></path><path d="M622.5 256h-384c-17.7 0-32 14.3-32 32s14.3 32 32 32h384c17.7 0 32-14.3 32-32s-14.3-32-32-32zM622.5 448h-384c-17.7 0-32 14.3-32 32s14.3 32 32 32h384c17.7 0 32-14.3 32-32s-14.3-32-32-32zM430.5 640h-192c-17.7 0-32 14.3-32 32s14.3 32 32 32h192c17.7 0 32-14.3 32-32s-14.3-32-32-32z" p-id="9884" fill="#ffffff"></path></svg>