<?xml version="1.0" standalone="no"?><!DOCTYPE svg PUBLIC "-//W3C//DTD SVG 1.1//EN" "http://www.w3.org/Graphics/SVG/1.1/DTD/svg11.dtd"><svg t="1576152494644" class="icon" viewBox="0 0 1024 1024" version="1.1" xmlns="http://www.w3.org/2000/svg" p-id="12713" xmlns:xlink="http://www.w3.org/1999/xlink" width="128" height="128"><defs><style type="text/css"></style></defs><path d="M778.666667 714.666667v-64a97.152 97.152 0 0 0-97.344-96 96 96 0 0 0-96 96V768a149.333333 149.333333 0 1 1-298.666667 0v-178.88A74.346667 74.346667 0 0 1 245.333333 522.666667c0-0.576 0.149333-1.130667 0.170667-1.706667A234.410667 234.410667 0 0 1 85.333333 298.666667V170.666667a85.333333 85.333333 0 0 1 85.333334-85.333334h10.901333a53.333333 53.333333 0 1 1 0.938667 65.130667A42.666667 42.666667 0 0 0 149.333333 192v106.666667a170.666667 170.666667 0 0 0 341.333334 0V192a42.666667 42.666667 0 0 0-33.173334-41.536A53.333333 53.333333 0 1 1 458.432 85.333333H469.333333a85.333333 85.333333 0 0 1 85.333334 85.333334v128a234.410667 234.410667 0 0 1-160.170667 222.250666c0 0.597333 0.170667 1.152 0.170667 1.749334a74.666667 74.666667 0 0 1-44.032 67.946666V768a85.333333 85.333333 0 0 0 85.333333 85.333333 88.234667 88.234667 0 0 0 88.661333-85.333333v-136.661333c0-64.661333 63.381333-140.672 156.778667-140.672a161.152 161.152 0 0 1 161.344 160v64h-64z" fill="#ffffff" p-id="12714"></path><path d="M810.666667 917.333333a117.333333 117.333333 0 1 1 117.333333-117.333333A117.333333 117.333333 0 0 1 810.666667 917.333333z m0-170.666666a53.333333 53.333333 0 1 0 53.333333 53.333333A53.333333 53.333333 0 0 0 810.666667 746.666667z" fill="#ffffff" p-id="12715"></path></svg>