<?xml version="1.0" standalone="no"?><!DOCTYPE svg PUBLIC "-//W3C//DTD SVG 1.1//EN" "http://www.w3.org/Graphics/SVG/1.1/DTD/svg11.dtd"><svg t="1576152377033" class="icon" viewBox="0 0 1024 1024" version="1.1" xmlns="http://www.w3.org/2000/svg" p-id="11025" xmlns:xlink="http://www.w3.org/1999/xlink" width="128" height="128"><defs><style type="text/css"></style></defs><path d="M648.533333 324.266667a34.133333 34.133333 0 1 1 0-68.266667h170.666667a34.133333 34.133333 0 1 1 0 68.266667v134.0416C918.6304 493.448533 989.866667 588.270933 989.866667 699.733333a255.317333 255.317333 0 0 1-81.954134 187.733334H955.733333a34.133333 34.133333 0 1 1 0 68.266666H68.266667a34.133333 34.133333 0 1 1 0-68.266666h18.7392a86.613333 86.613333 0 0 1 20.753066-75.298134L307.2 593.4592v-333.312A76.8 76.8 0 0 1 349.866667 119.466667l187.733333-0.017067a76.8 76.8 0 0 1 42.666667 140.663467V494.933333a255.3856 255.3856 0 0 1 68.266666-36.608V324.266667z m102.4 0h-34.133333v182.306133l-45.5168 16.093867A187.648 187.648 0 0 0 580.266667 591.752533v1.706667l199.441066 218.709333a86.442667 86.442667 0 0 1 22.3232 62.549334C872.004267 847.428267 921.6 779.3664 921.6 699.733333c0-80.213333-50.773333-150.784-125.149867-177.066666L750.933333 506.5728V324.266667zM158.208 858.180267c-6.4512 7.0656-6.058667 18.722133 0.768 25.2416a14.08 14.08 0 0 0 9.728 4.0448h550.058667c7.9872 0 15.104-7.287467 15.104-17.066667 0-4.642133-1.706667-9.045333-4.608-12.219733L512 619.912533V223.675733l30.293333-20.2752A8.533333 8.533333 0 0 0 537.6 187.733333h-187.733333a8.533333 8.533333 0 0 0-4.693334 15.6672L375.466667 223.675733v396.2368L158.208 858.1632z" fill="#ffffff" p-id="11026"></path><path d="M221.866667 853.333333l136.533333-153.6h170.666667l136.533333 153.6H221.866667z m187.733333-34.133333a34.133333 34.133333 0 1 0 0-68.266667 34.133333 34.133333 0 0 0 0 68.266667z m85.333333-34.133333a17.066667 17.066667 0 1 0 0-34.133334 17.066667 17.066667 0 0 0 0 34.133334z" fill="#ffffff" p-id="11027"></path></svg>