<?xml version="1.0" standalone="no"?><!DOCTYPE svg PUBLIC "-//W3C//DTD SVG 1.1//EN" "http://www.w3.org/Graphics/SVG/1.1/DTD/svg11.dtd"><svg class="icon" width="128px" height="128.00px" viewBox="0 0 1024 1024" version="1.1" xmlns="http://www.w3.org/2000/svg"><path fill="#ffffff" d="M672.064853 1016.32a51.2 51.2 0 0 0 24.177778-43.52v-263.310222a51.2 51.2 0 1 0-102.4 0V890.311111l-163.640889-80.952889v-363.235555a51.2 51.2 0 0 0-11.776-32.654223L160.207076 102.4h703.544888l-258.133333 311.096889a51.2 51.2 0 0 0-11.776 32.654222V512a51.2 51.2 0 1 0 102.4 0v-47.36L1012.118187 83.911111A51.2 51.2 0 0 0 972.807964 0H51.207964A51.2 51.2 0 0 0 11.812409 83.911111l316.017778 380.728889v376.547556a51.2 51.2 0 0 0 28.444444 45.852444l266.069333 131.640889a51.2 51.2 0 0 0 49.664-2.360889h0.056889z m121.344-306.830222a51.2 51.2 0 0 0 51.2 51.2H972.807964a51.2 51.2 0 1 0 0-102.4H844.52352a51.2 51.2 0 0 0-51.2 51.2h0.056889z m0-197.489778a51.2 51.2 0 0 0 51.2 51.2H972.807964a51.2 51.2 0 0 0 0-102.4H844.52352a51.2 51.2 0 0 0-51.2 51.2h0.056889z" /></svg>