<?xml version="1.0" standalone="no"?><!DOCTYPE svg PUBLIC "-//W3C//DTD SVG 1.1//EN" "http://www.w3.org/Graphics/SVG/1.1/DTD/svg11.dtd"><svg class="icon" width="128px" height="128.00px" viewBox="0 0 1024 1024" version="1.1" xmlns="http://www.w3.org/2000/svg"><path fill="#ffffff" d="M818.9 128H384.6c-28.9 0-56.6 10.2-77.8 28.6l-171 148.5c-23.5 20.4-37 49.3-37 79.4v440.8c0 56.7 48.9 102.8 109 102.8h611.1c60.1 0 109-46.1 109-102.8V230.7c0.1-56.6-48.8-102.7-109-102.7zM345 200.5c4.1-3.6 8.8-6.5 13.8-8.8V349H174l171-148.5z m524.8 624.8c0 24.6-22.8 44.6-50.9 44.6H718.2V622.6c0-16.1-13-29.1-29.1-29.1s-29.1 13-29.1 29.1v247.3H546.1V680.8c0-16.1-13-29.1-29.1-29.1s-29.1 13-29.1 29.1v189.1H374.1V735.8c0-16.1-13-29.1-29.1-29.1s-29.1 13-29.1 29.1v134.1h-108c-28 0-50.9-20-50.9-44.6V402c4.7 3.3 10.4 5.2 16.6 5.2h193.9c27.2 0 49.4-21.4 49.4-47.8V186.2H819c28 0 50.9 20 50.9 44.6v594.5zM770.9 290l-184.4 72.7c-14.9 5.9-22.3 22.8-16.4 37.7 5.9 14.9 22.8 22.3 37.7 16.4l97.9-38.6-114.4 171.7-92.4-80.2c-5.8-5.1-13.4-7.5-21.2-7-7.7 0.6-14.9 4.1-19.9 10L376.4 567 247.5 455.1c-12.1-10.5-30.5-9.2-41 2.9s-9.2 30.5 2.9 41l150.8 131c5.3 4.6 12.1 7.1 19.1 7.1 0.7 0 1.4 0 2.1-0.1 7.7-0.6 14.9-4.1 19.9-10l81.5-94.3 95.3 82.7c6.3 5.5 14.7 8 22.9 6.9 8.3-1.1 15.7-5.7 20.3-12.7l184.4-276.4c7.1-10.6 6.4-24.5-1.6-34.4-7.9-9.9-21.3-13.5-33.2-8.8z" /></svg>